<?xml version="1.0" encoding="UTF-8" standalone="no"?>
<!DOCTYPE svg PUBLIC "-//W3C//DTD SVG 1.1//EN" "http://www.w3.org/Graphics/SVG/1.1/DTD/svg11.dtd">
<svg width="100%" height="100%" viewBox="0 0 2000 2000" version="1.1" xmlns="http://www.w3.org/2000/svg" xmlns:xlink="http://www.w3.org/1999/xlink" xml:space="preserve" xmlns:serif="http://www.serif.com/" style="fill-rule:evenodd;clip-rule:evenodd;stroke-linejoin:round;stroke-miterlimit:2;">
    <g transform="matrix(0.831093,0,0,0.831093,-62.141256,168.906745)">
        <g transform="matrix(3.97789,0,0,4.541518,-270.923037,-2313.230596)">
            <g transform="matrix(50,0,0,50,291.835515,748.938493)">
                <path d="M0.114,-0L0.114,-0.716L0.21,-0.716L0.476,-0.079L0.478,-0.079L0.742,-0.716C0.743,-0.716 0.743,-0.716 0.743,-0.716L0.742,-0.716L0.834,-0.716L0.834,-0L0.762,-0L0.762,-0.408L0.767,-0.605L0.764,-0.605L0.512,-0L0.438,-0L0.183,-0.608L0.18,-0.608L0.186,-0.408L0.186,-0L0.114,-0Z" style="fill-rule:nonzero;"/>
            </g>
            <g transform="matrix(50,0,0,50,339.243162,748.938493)">
                <path d="M0.25,0.016C0.19,0.016 0.142,-0 0.105,-0.033C0.068,-0.066 0.05,-0.111 0.05,-0.169C0.05,-0.229 0.07,-0.276 0.11,-0.31C0.15,-0.344 0.201,-0.36 0.265,-0.36C0.304,-0.36 0.339,-0.355 0.369,-0.345C0.398,-0.334 0.425,-0.32 0.447,-0.302L0.447,-0.349C0.447,-0.399 0.433,-0.435 0.405,-0.457C0.377,-0.479 0.34,-0.49 0.296,-0.49C0.265,-0.49 0.235,-0.484 0.208,-0.473C0.18,-0.462 0.151,-0.445 0.121,-0.421L0.08,-0.47C0.116,-0.5 0.151,-0.521 0.185,-0.534C0.219,-0.548 0.258,-0.554 0.303,-0.554C0.367,-0.554 0.419,-0.537 0.46,-0.502C0.501,-0.468 0.522,-0.417 0.522,-0.351L0.522,-0L0.451,-0L0.451,-0.121L0.467,-0.101L0.448,-0.101C0.435,-0.07 0.411,-0.043 0.376,-0.019C0.341,0.004 0.299,0.016 0.25,0.016ZM0.265,-0.044C0.312,-0.044 0.355,-0.062 0.391,-0.098C0.428,-0.134 0.447,-0.178 0.449,-0.23L0.449,-0.236C0.427,-0.258 0.401,-0.275 0.372,-0.286C0.342,-0.297 0.31,-0.303 0.276,-0.303C0.23,-0.303 0.193,-0.292 0.166,-0.269C0.139,-0.247 0.125,-0.214 0.125,-0.171C0.125,-0.132 0.137,-0.102 0.162,-0.079C0.187,-0.056 0.222,-0.044 0.265,-0.044Z" style="fill-rule:nonzero;"/>
            </g>
            <g transform="matrix(50,0,0,50,369.491209,748.938493)">
                <path d="M0.263,0.016C0.222,0.016 0.189,0.004 0.165,-0.019C0.14,-0.042 0.128,-0.075 0.128,-0.118L0.128,-0.675L0.202,-0.675L0.202,-0.125C0.202,-0.1 0.208,-0.081 0.22,-0.069C0.232,-0.056 0.25,-0.05 0.274,-0.05C0.287,-0.05 0.3,-0.053 0.314,-0.059C0.327,-0.064 0.342,-0.073 0.357,-0.084L0.388,-0.031C0.367,-0.015 0.347,-0.003 0.327,0.005C0.308,0.012 0.286,0.016 0.263,0.016ZM0.024,-0.471L0.024,-0.538L0.362,-0.538L0.362,-0.471L0.024,-0.471Z" style="fill-rule:nonzero;"/>
            </g>
            <g transform="matrix(50,0,0,50,390.477519,748.938493)">
                <path d="M0.333,0.016C0.248,0.016 0.18,-0.01 0.129,-0.063C0.078,-0.115 0.053,-0.183 0.053,-0.267C0.053,-0.347 0.078,-0.415 0.128,-0.47C0.178,-0.526 0.246,-0.554 0.33,-0.554C0.409,-0.554 0.471,-0.53 0.515,-0.481C0.56,-0.433 0.582,-0.371 0.582,-0.296C0.582,-0.289 0.582,-0.281 0.582,-0.272C0.582,-0.264 0.581,-0.255 0.579,-0.245L0.095,-0.245L0.095,-0.304L0.51,-0.304L0.51,-0.305C0.509,-0.358 0.493,-0.403 0.462,-0.438C0.431,-0.473 0.387,-0.49 0.33,-0.49C0.271,-0.49 0.223,-0.47 0.185,-0.429C0.146,-0.388 0.127,-0.334 0.127,-0.267C0.127,-0.197 0.147,-0.143 0.187,-0.106C0.226,-0.068 0.276,-0.05 0.336,-0.05C0.373,-0.05 0.406,-0.056 0.436,-0.069C0.466,-0.083 0.494,-0.103 0.521,-0.132L0.568,-0.09C0.54,-0.054 0.506,-0.028 0.467,-0.01C0.429,0.007 0.384,0.016 0.333,0.016Z" style="fill-rule:nonzero;"/>
            </g>
            <g transform="matrix(50,0,0,50,422.339012,748.938493)">
                <path d="M0.338,0.016C0.252,0.016 0.183,-0.011 0.131,-0.065C0.079,-0.118 0.053,-0.186 0.053,-0.267C0.053,-0.351 0.079,-0.42 0.133,-0.474C0.186,-0.527 0.254,-0.554 0.338,-0.554C0.423,-0.554 0.492,-0.527 0.545,-0.472C0.598,-0.417 0.625,-0.349 0.625,-0.267C0.625,-0.187 0.599,-0.12 0.546,-0.066C0.494,-0.011 0.425,0.016 0.338,0.016ZM0.338,-0.051C0.399,-0.051 0.449,-0.071 0.489,-0.111C0.528,-0.151 0.548,-0.203 0.548,-0.267C0.548,-0.331 0.528,-0.384 0.489,-0.425C0.449,-0.466 0.399,-0.487 0.338,-0.487C0.278,-0.487 0.228,-0.467 0.188,-0.427C0.149,-0.387 0.129,-0.333 0.129,-0.267C0.129,-0.202 0.149,-0.15 0.188,-0.111C0.227,-0.071 0.277,-0.051 0.338,-0.051Z" style="fill-rule:nonzero;"/>
            </g>
            <g transform="matrix(50,0,0,50,470.550047,748.938493)">
                <path d="M0.444,0.018C0.329,0.018 0.237,-0.017 0.168,-0.086C0.099,-0.154 0.064,-0.245 0.064,-0.358C0.064,-0.466 0.101,-0.556 0.176,-0.627C0.25,-0.698 0.341,-0.734 0.45,-0.734C0.486,-0.734 0.519,-0.73 0.55,-0.723C0.58,-0.715 0.609,-0.703 0.637,-0.688C0.664,-0.672 0.694,-0.648 0.725,-0.618L0.725,-0.618C0.725,-0.618 0.725,-0.618 0.725,-0.618L0.645,-0.529C0.618,-0.555 0.596,-0.573 0.579,-0.583C0.562,-0.593 0.544,-0.601 0.523,-0.608C0.502,-0.614 0.477,-0.617 0.447,-0.617C0.379,-0.617 0.321,-0.593 0.271,-0.545C0.221,-0.498 0.197,-0.435 0.197,-0.357C0.197,-0.28 0.221,-0.218 0.27,-0.17C0.318,-0.123 0.376,-0.099 0.443,-0.099C0.47,-0.099 0.496,-0.102 0.519,-0.109C0.542,-0.115 0.564,-0.124 0.583,-0.136C0.603,-0.148 0.628,-0.168 0.66,-0.197L0.743,-0.118C0.708,-0.079 0.677,-0.051 0.648,-0.034C0.619,-0.017 0.588,-0.004 0.554,0.005C0.52,0.013 0.483,0.018 0.444,0.018Z" style="fill-rule:nonzero;"/>
            </g>
            <g transform="matrix(50,0,0,50,509.683363,748.938493)">
                <path d="M0.088,-0L0.088,-0.749L0.211,-0.749L0.211,-0.471L0.214,-0.471C0.233,-0.496 0.258,-0.517 0.29,-0.535C0.321,-0.552 0.361,-0.56 0.408,-0.56C0.47,-0.56 0.518,-0.544 0.552,-0.511C0.585,-0.478 0.602,-0.433 0.602,-0.376L0.602,-0L0.479,-0L0.479,-0.343C0.479,-0.384 0.47,-0.413 0.45,-0.432C0.43,-0.45 0.401,-0.459 0.362,-0.459C0.316,-0.459 0.279,-0.446 0.252,-0.42C0.224,-0.393 0.211,-0.361 0.211,-0.324L0.211,-0L0.088,-0Z" style="fill-rule:nonzero;"/>
            </g>
            <g transform="matrix(50,0,0,50,543.800114,748.938493)">
                <path d="M0.088,-0L0.088,-0.543L0.211,-0.543L0.211,-0L0.088,-0ZM0.15,-0.643C0.13,-0.643 0.111,-0.651 0.096,-0.666C0.081,-0.681 0.073,-0.699 0.073,-0.72C0.073,-0.741 0.081,-0.759 0.096,-0.773C0.111,-0.787 0.13,-0.794 0.15,-0.794C0.172,-0.794 0.191,-0.787 0.205,-0.773C0.219,-0.759 0.226,-0.741 0.226,-0.72C0.226,-0.699 0.219,-0.681 0.205,-0.666C0.19,-0.651 0.172,-0.643 0.15,-0.643Z" style="fill-rule:nonzero;"/>
            </g>
            <g transform="matrix(50,0,0,50,558.741874,748.938493)">
                <path d="M0.341,0.018C0.251,0.018 0.179,-0.009 0.126,-0.064C0.073,-0.119 0.047,-0.188 0.047,-0.271C0.047,-0.353 0.073,-0.422 0.125,-0.477C0.178,-0.533 0.251,-0.561 0.345,-0.561C0.383,-0.561 0.419,-0.556 0.451,-0.544C0.484,-0.533 0.517,-0.514 0.551,-0.488L0.481,-0.401C0.458,-0.419 0.436,-0.432 0.415,-0.44C0.394,-0.448 0.37,-0.452 0.343,-0.452C0.294,-0.452 0.253,-0.435 0.221,-0.402C0.189,-0.368 0.174,-0.325 0.174,-0.271C0.174,-0.217 0.19,-0.173 0.222,-0.141C0.255,-0.108 0.295,-0.091 0.343,-0.091C0.372,-0.091 0.399,-0.096 0.422,-0.106C0.446,-0.117 0.468,-0.133 0.489,-0.154L0.571,-0.078C0.54,-0.045 0.506,-0.021 0.468,-0.005C0.431,0.01 0.388,0.018 0.341,0.018Z" style="fill-rule:nonzero;"/>
            </g>
            <g transform="matrix(50,0,0,50,588.475258,748.938493)">
                <path d="M0.243,0.017C0.186,0.017 0.139,0.002 0.101,-0.03C0.064,-0.061 0.045,-0.107 0.045,-0.166C0.045,-0.227 0.065,-0.275 0.106,-0.308C0.147,-0.342 0.2,-0.358 0.266,-0.358C0.301,-0.358 0.332,-0.355 0.359,-0.347C0.385,-0.34 0.41,-0.33 0.433,-0.316L0.433,-0.35C0.433,-0.389 0.42,-0.418 0.396,-0.435C0.371,-0.452 0.34,-0.46 0.302,-0.46C0.271,-0.46 0.243,-0.455 0.216,-0.445C0.189,-0.435 0.16,-0.419 0.13,-0.398L0.075,-0.476C0.115,-0.505 0.153,-0.526 0.19,-0.54C0.228,-0.554 0.27,-0.561 0.319,-0.561C0.389,-0.561 0.447,-0.542 0.491,-0.506C0.536,-0.469 0.558,-0.417 0.558,-0.351L0.558,-0L0.439,-0L0.439,-0.093L0.451,-0.074L0.436,-0.074C0.42,-0.05 0.397,-0.029 0.364,-0.01C0.332,0.008 0.292,0.017 0.243,0.017ZM0.285,-0.078C0.328,-0.078 0.364,-0.092 0.392,-0.12C0.421,-0.148 0.435,-0.179 0.435,-0.213L0.435,-0.221C0.419,-0.238 0.398,-0.251 0.372,-0.26C0.347,-0.269 0.32,-0.273 0.294,-0.273C0.255,-0.273 0.225,-0.264 0.204,-0.246C0.182,-0.228 0.171,-0.205 0.171,-0.177C0.171,-0.145 0.181,-0.121 0.201,-0.103C0.221,-0.086 0.249,-0.078 0.285,-0.078Z" style="fill-rule:nonzero;"/>
            </g>
            <g transform="matrix(50,0,0,50,620.425367,748.938493)">
                <path d="M0.269,0.018C0.213,0.018 0.167,0.007 0.129,-0.016C0.091,-0.039 0.06,-0.073 0.037,-0.119L0.12,-0.17C0.139,-0.137 0.16,-0.114 0.183,-0.099C0.206,-0.085 0.234,-0.078 0.269,-0.078C0.299,-0.078 0.324,-0.084 0.343,-0.097C0.362,-0.11 0.371,-0.126 0.371,-0.147C0.371,-0.17 0.361,-0.187 0.342,-0.2C0.323,-0.212 0.291,-0.224 0.247,-0.235C0.175,-0.253 0.127,-0.275 0.101,-0.301C0.076,-0.327 0.063,-0.361 0.063,-0.405C0.063,-0.452 0.082,-0.489 0.119,-0.518C0.157,-0.547 0.205,-0.561 0.265,-0.561C0.311,-0.561 0.35,-0.553 0.383,-0.537C0.416,-0.521 0.444,-0.498 0.467,-0.468L0.388,-0.409C0.371,-0.428 0.354,-0.442 0.336,-0.451C0.317,-0.46 0.294,-0.465 0.266,-0.465C0.237,-0.465 0.214,-0.46 0.198,-0.449C0.181,-0.438 0.173,-0.424 0.173,-0.407C0.173,-0.393 0.179,-0.381 0.192,-0.37C0.204,-0.36 0.244,-0.345 0.31,-0.326C0.371,-0.308 0.415,-0.286 0.443,-0.261C0.47,-0.235 0.484,-0.2 0.484,-0.154C0.484,-0.102 0.464,-0.061 0.423,-0.029C0.382,0.002 0.331,0.018 0.269,0.018Z" style="fill-rule:nonzero;"/>
            </g>
            <g transform="matrix(50,0,0,50,646.800419,748.938493)">
            </g>
        </g>
        <g transform="matrix(2.532663,0,0,2.891605,252.281287,653.735262)">
            <path d="M222.898,133.538C220.787,154.987 219.657,177.805 214.829,169.34C213.229,166.535 229.835,41.391 223.046,22.655C220.092,14.503 211.799,5.683 204.581,8.721C193.245,13.491 176.142,31.244 170.922,44.681C156.893,80.791 156.679,146.576 145.863,138.048C141.228,134.393 148.539,73.927 133.565,91.557C120.245,107.239 111.286,134.114 100.124,171.376C96.932,182.032 87.207,236.3 81.463,235.872C78.117,235.622 79.377,233.492 88.698,194.547C88.816,194.055 100.093,155.652 104.704,113.521C109.608,68.719 104.514,60.614 102.096,56.766C92.845,42.046 51.72,71.503 25.402,145.463C6.183,199.474 9.894,206.225 4.777,203.002C3.848,202.417 2.337,201.757 12.148,169.386C47.305,53.393 106.153,23.196 110.455,68.505C113.752,103.234 106.172,133.12 104.79,138.571C104.352,140.296 105.546,141.04 106.423,139.455C106.876,138.638 110.587,116.072 125.832,93.74C136.767,77.722 145.227,81.067 147.201,94.544C149.192,108.127 147.823,137.056 150.208,124.373C156.899,88.79 154.271,34.278 197.701,6.834C212.532,-2.538 230.392,8.576 230.041,40.49C229.97,46.908 223.446,127.403 222.898,133.538Z" style="fill-opacity:0.98;"/>
        </g>
    </g>
</svg>
