<?xml version="1.0" encoding="UTF-8" standalone="no"?>
<!DOCTYPE svg PUBLIC "-//W3C//DTD SVG 1.1//EN" "http://www.w3.org/Graphics/SVG/1.1/DTD/svg11.dtd">
<svg width="100%" height="100%" viewBox="0 0 363 270" version="1.1" xmlns="http://www.w3.org/2000/svg" xmlns:xlink="http://www.w3.org/1999/xlink" xml:space="preserve" xmlns:serif="http://www.serif.com/" style="fill-rule:evenodd;clip-rule:evenodd;stroke-linejoin:round;stroke-miterlimit:2;">
    <g transform="matrix(1,0,0,1,-70.193786,-0.000516)">
        <g transform="matrix(0.831093,0,0,0.831093,-779.112609,-454.317318)">
            <g transform="matrix(1.888015,0,0,1.355318,1019.196144,546.754273)">
                <path d="M222.898,133.538C220.787,154.987 219.657,177.805 214.829,169.34C213.229,166.535 229.835,41.391 223.046,22.655C220.092,14.503 211.799,5.683 204.581,8.721C193.245,13.491 176.142,31.244 170.922,44.681C156.893,80.791 156.679,146.576 145.863,138.048C141.228,134.393 148.539,73.927 133.565,91.557C120.245,107.239 111.286,134.114 100.124,171.376C96.932,182.032 87.207,236.3 81.463,235.872C78.117,235.622 79.377,233.492 88.698,194.547C88.816,194.055 100.093,155.652 104.704,113.521C109.608,68.719 104.514,60.614 102.096,56.766C92.845,42.046 51.72,71.503 25.402,145.463C6.183,199.474 9.894,206.225 4.777,203.002C3.848,202.417 2.337,201.757 12.148,169.386C47.305,53.393 106.153,23.196 110.455,68.505C113.752,103.234 106.172,133.12 104.79,138.571C104.352,140.296 105.546,141.04 106.423,139.455C106.876,138.638 110.587,116.072 125.832,93.74C136.767,77.722 145.227,81.067 147.201,94.544C147.648,97.589 147.925,101.406 148.114,105.353C148.767,119.008 148.357,134.212 150.208,124.373C156.899,88.79 154.271,34.278 197.701,6.834C212.532,-2.538 230.392,8.576 230.041,40.49C229.97,46.908 223.446,127.403 222.898,133.538Z" style="fill:rgb(198,159,99);fill-opacity:0.98;stroke:rgb(198,159,99);stroke-width:6.1px;"/>
            </g>
        </g>
    </g>
</svg>
